<svg xmlns="http://www.w3.org/2000/svg" overflow="visible" viewBox="0 0 258.543 147"><g fill="#e64444" stroke="#000" stroke-width="2.156" class="ij3xP3N-2" transform="matrix(.51907 0 0 .51907 45.921 0)"><circle cx="141.6" cy="141.6" r="133.8"/><path d="M141.6 0C63.5 0 0 63.5 0 141.6s63.5 141.6 141.6 141.6 141.6-63.5 141.6-141.6S219.7 0 141.6 0zm0 281.2C64.6 281.2 2 218.6 2 141.6S64.6 2 141.6 2s139.6 62.6 139.6 139.6-62.6 139.6-139.6 139.6z"/></g><path fill="#303030" d="M5.806 56.555c-.728-1.109-1.091-2.39-1.091-3.845 0-1.645.52-3.044 1.55-4.192 1.035-1.147 2.53-1.723 4.477-1.723 1.762 0 3.257.498 4.482 1.494 1.22.996 2.16 2.155 2.81 3.475.649 1.32 1.09 2.552 1.32 3.7.04.156.162.212.375.173.207-.04.313-.135.313-.286l-.23-7.174c0-.425-.307-.767-.917-1.035-.996-.42-2.115-.744-3.357-.974a20.046 20.046 0 0 0-3.644-.347c-1.913 0-3.721.336-5.428 1.007-1.701.666-3.078 1.69-4.13 3.067C1.284 51.277.758 52.94.758 54.892c0 1.567.364 2.938 1.091 4.102a10.907 10.907 0 0 0 2.664 2.96c1.058.801 2.502 1.78 4.337 2.928 1.914 1.186 3.414 2.199 4.505 3.038 1.091.845 2.031 1.909 2.815 3.19.783 1.282 1.175 2.804 1.175 4.56 0 2.223-.593 3.817-1.78 4.797-1.186.973-2.68 1.46-4.476 1.46-2.642 0-4.824-1.03-6.542-3.1-1.724-2.065-3.005-4.516-3.85-7.348-.034-.15-.168-.207-.398-.168-.23.034-.33.13-.29.286l.576 8.21c.078.34.14.581.201.716.056.134.18.257.37.375 1.074.649 2.383 1.164 3.934 1.55 1.55.38 3.089.57 4.622.57 3.671 0 6.581-.928 8.724-2.78 2.144-1.859 3.212-4.299 3.212-7.32 0-1.685-.397-3.157-1.203-4.421a11.911 11.911 0 0 0-2.926-3.185c-1.148-.861-2.698-1.885-4.65-3.072-1.836-1.074-3.291-2.009-4.366-2.815a11.25 11.25 0 0 1-2.697-2.87Zm21.702 25.428c0 .23.056.347.167.347 1.187 0 2.127-.017 2.815-.056l3.845-.061 4.018.061c.615.04 1.494.056 2.641.056.079 0 .118-.117.118-.347 0-.23-.056-.341-.174-.341-1.264 0-2.193-.095-2.787-.285-.593-.196-.99-.566-1.203-1.12-.212-.56-.335-1.41-.375-2.557V51.216c.04-1.147.163-1.998.375-2.552.213-.554.61-.946 1.203-1.175.594-.23 1.523-.347 2.787-.347.118 0 .174-.112.174-.347 0-.23-.056-.341-.174-.341l-2.585.055a86.59 86.59 0 0 1-4.13.118c-.996 0-2.294-.04-3.906-.118l-2.697-.055c-.112 0-.163.111-.14.34.016.236.067.348.14.348 1.264 0 2.199.106 2.814.313.61.213 1.03.588 1.265 1.12.23.537.341 1.382.341 2.529V77.68c.04 1.147-.055 1.998-.285 2.557-.23.554-.65.924-1.265 1.12-.61.19-1.567.285-2.87.285-.073 0-.112.112-.112.341ZM82.96 46.795c0-.23-.04-.341-.118-.341l-2.524.055a48.26 48.26 0 0 1-2.927.118c-.845 0-1.913-.04-3.217-.118l-2.065-.055c-.118 0-.174.111-.174.34 0 .236.056.348.174.348 1.567 0 2.714.459 3.441 1.376.728.918 1.092 2.334 1.092 4.248v22.96l-20.32-26.29c-.576-.727-.996-1.354-1.265-1.891-.263-.46-.464-.756-.598-.89-.135-.134-.359-.201-.66-.201-.23 0-.633.016-1.21.055-.57.04-1.242.056-2.009.056-.839 0-1.51-.016-2.009-.056l-2.523-.055c-.118 0-.174.111-.174.34 0 .236.056.348.174.348 1.645 0 3.234.822 4.762 2.468v26.464c0 3.71-1.567 5.568-4.706 5.568-.112 0-.174.112-.174.341 0 .23.062.347.174.347 1.035 0 1.835-.017 2.411-.056l3.045-.061 3.038.061c.538.04 1.282.056 2.239.056.117 0 .173-.117.173-.347 0-.23-.056-.341-.173-.341-1.567 0-2.725-.459-3.47-1.377-.75-.917-1.119-2.317-1.119-4.191v-24.74l24.623 31.573c.118.15.308.23.576.23a.928.928 0 0 0 .403-.09c.112-.056.168-.124.168-.202l.062-30.08c0-3.748 1.59-5.623 4.762-5.623.078 0 .118-.112.118-.347Zm4.415 35.188c0 .23.061.347.173.347 1.187 0 2.127-.017 2.815-.056l3.845-.061 4.018.061c.615.04 1.494.056 2.641.056.079 0 .118-.117.118-.347 0-.23-.062-.341-.174-.341-1.264 0-2.193-.095-2.787-.285-.593-.196-.996-.566-1.203-1.12-.212-.56-.336-1.41-.375-2.557V51.216c.04-1.147.163-1.998.375-2.552.207-.554.61-.946 1.203-1.175.594-.23 1.523-.347 2.787-.347.112 0 .174-.112.174-.347 0-.23-.062-.341-.174-.341l-2.585.055a86.59 86.59 0 0 1-4.13.118c-.996 0-2.3-.04-3.906-.118l-2.698-.055c-.117 0-.162.111-.145.34.022.236.067.348.145.348 1.265 0 2.2.106 2.815.313.61.213 1.03.588 1.26 1.12.229.537.346 1.382.346 2.529V77.68c.04 1.147-.056 1.998-.285 2.557-.235.554-.655.924-1.265 1.12-.615.19-1.572.285-2.87.285-.079 0-.118.112-.118.341Zm26.29-25.428c-.721-1.109-1.085-2.39-1.085-3.845 0-1.645.515-3.044 1.55-4.192 1.03-1.147 2.524-1.723 4.477-1.723 1.757 0 3.251.498 4.477 1.494 1.225.996 2.16 2.155 2.81 3.475.654 1.32 1.09 2.552 1.32 3.7.039.156.162.212.375.173.212-.04.313-.135.313-.286l-.23-7.174c0-.425-.302-.767-.917-1.035-.996-.42-2.115-.744-3.358-.974a20.046 20.046 0 0 0-3.643-.347c-1.914 0-3.721.336-5.428 1.007-1.701.666-3.078 1.69-4.13 3.067-1.052 1.382-1.578 3.044-1.578 4.997 0 1.567.364 2.938 1.091 4.102a11.018 11.018 0 0 0 2.67 2.96c1.051.801 2.495 1.78 4.33 2.928 1.915 1.186 3.414 2.199 4.506 3.038 1.09.845 2.031 1.909 2.815 3.19.783 1.282 1.175 2.804 1.175 4.56 0 2.223-.593 3.817-1.78 4.797-1.186.973-2.675 1.46-4.477 1.46-2.641 0-4.818-1.03-6.542-3.1-1.723-2.065-3.005-4.516-3.844-7.348-.04-.15-.174-.207-.403-.168-.23.034-.325.13-.291.286l.576 8.21c.079.34.146.581.202.716.056.134.179.257.375.375 1.069.649 2.378 1.164 3.928 1.55 1.55.38 3.09.57 4.623.57 3.67 0 6.58-.928 8.724-2.78 2.143-1.859 3.218-4.299 3.218-7.32 0-1.685-.403-3.157-1.209-4.421a11.82 11.82 0 0 0-2.927-3.185c-1.147-.861-2.697-1.885-4.65-3.072-1.836-1.074-3.29-2.009-4.36-2.815a11.175 11.175 0 0 1-2.702-2.87Zm28.703 25.428c0 .23.062.347.174.347 1.303 0 2.316-.017 3.044-.056l4.247-.061 4.421.061c.728.04 1.701.056 2.927.056.112 0 .173-.117.173-.347 0-.23-.061-.341-.173-.341-1.533 0-2.641-.095-3.33-.285-.688-.196-1.147-.56-1.376-1.092-.23-.537-.347-1.399-.347-2.585l-.112-26.464c.033-1.03.128-1.797.285-2.295.151-.498.448-.85.89-1.063.442-.207 1.158-.313 2.154-.313h1.26c2.529 0 4.42.705 5.685 2.12 1.26 1.417 1.892 3.487 1.892 6.201 0 .157.134.23.403.23.23 0 .347-.056.347-.174-.04-.878 0-2.501.112-4.874.117-2.373.229-4.348.347-5.915.033-.151-.05-.24-.264-.258-.207-.022-.352.028-.425.146-.157.57-.52.951-1.091 1.147-.576.19-1.494.286-2.759.286l-4.018.055a236.4 236.4 0 0 1-7.057.118c-4.672 0-8.556-.062-11.656-.173-1.718 0-2.58-.403-2.58-1.204 0-.078-.05-.134-.146-.173a.821.821 0 0 0-.313-.056c-.196 0-.291.056-.291.168-.38 5.78-.666 9.357-.862 10.733-.033.04 0 .09.118.146.112.056.23.084.341.084.157 0 .235-.034.235-.112.341-2.793 1.203-4.908 2.58-6.34 1.376-1.439 3.234-2.155 5.568-2.155h1.265c1.455 0 2.417.23 2.898.688.476.459.7 1.416.66 2.87V77.68c.04 1.147-.078 1.992-.346 2.524-.269.537-.756.912-1.46 1.119-.711.213-1.808.319-3.302.319-.079 0-.118.112-.118.341Zm54.02-8.55c-.19 0-.286.055-.286.173-.694 2.294-1.78 4.141-3.274 5.54-1.494 1.394-3.178 2.093-5.053 2.093h-5.221c-1.226 0-2.138-.095-2.731-.285-.593-.19-.99-.549-1.203-1.064-.213-.514-.314-1.332-.314-2.44V64.305h8.148c1.802 0 3.112.392 3.934 1.175.823.79 1.232 2.02 1.232 3.705 0 .151.128.23.374.23.252 0 .375-.079.375-.23l-.061-2.927a47.226 47.226 0 0 1-.056-2.585v-4.818c.04-.157-.067-.23-.313-.23-.252 0-.375.073-.375.23.039 1.488-.325 2.551-1.092 3.184-.766.632-2.025.945-3.788.945h-8.378V51.16c.034-1.108.151-1.914.342-2.412.19-.498.576-.84 1.147-1.03.576-.196 1.51-.29 2.815-.29h3.844c1.914 0 3.52.62 4.824 1.868 1.298 1.243 2.104 2.9 2.412 4.964.073.118.207.174.397.174.235 0 .347-.056.347-.174l-.173-7.292c0-.341-.151-.514-.459-.514h-24.393c-.079 0-.118.111-.118.34 0 .236.056.348.173.348 1.265 0 2.189.106 2.782.313.593.213 1.007.588 1.236 1.12.23.537.364 1.382.403 2.529V77.68c0 1.186-.106 2.048-.319 2.585-.207.532-.61.896-1.203 1.092-.593.19-1.539.285-2.843.285-.111 0-.173.112-.173.341 0 .23.078.347.23.347h25.831c.347 0 .588-.067.722-.201.134-.135.201-.353.201-.66 0-3.1.168-5.68.515-7.751.04-.073 0-.14-.117-.202a.768.768 0 0 0-.342-.084Zm41.987 8.55c-.017-.23-.084-.341-.201-.341-1.528 0-3.129-.616-4.79-1.836-1.668-1.225-3.57-3.223-5.714-5.999-2.144-2.775-4.785-6.614-7.919-11.51 1.797-.997 3.224-2.278 4.276-3.845 1.052-1.573 1.578-3.235 1.578-4.998 0-2.255-.879-4.018-2.642-5.277-1.757-1.265-4.325-1.897-7.689-1.897-.805 0-1.723.056-2.759.174-.42.039-1.024.078-1.807.111a42.75 42.75 0 0 1-2.093.062c-.957 0-2.278-.04-3.962-.118l-2.87-.055c-.152 0-.23.111-.23.34 0 .236.078.348.23.348 1.376 0 2.383.106 3.015.313.627.213 1.058.588 1.288 1.12.229.537.363 1.382.402 2.529V77.68c-.039 1.108-.179 1.942-.43 2.496-.247.554-.717.94-1.405 1.147-.688.213-1.724.319-3.1.319-.151 0-.219.112-.202.341.017.23.107.347.258.347a54.29 54.29 0 0 0 2.87-.056l4.074-.061 4.08.061c.688.04 1.623.056 2.81.056.156 0 .223-.117.2-.347-.016-.23-.106-.341-.257-.341-1.298 0-2.255-.106-2.87-.319-.61-.207-1.025-.582-1.232-1.12-.212-.53-.335-1.376-.375-2.523l.056-13.66a13.94 13.94 0 0 0 1.606.112c1.265 0 2.507-.151 3.733-.46 3.486 5.972 6.497 10.572 9.043 13.806 2.547 3.235 4.293 4.852 5.25 4.852h7.577c.156 0 .224-.117.201-.347Zm-24.824-19.228c-.616 0-1.494-.078-2.642-.23v-11.31c.04-1.297.151-2.215.347-2.752.19-.538.493-.873.918-1.008.42-.128 1.164-.196 2.239-.196 1.947 0 3.52.65 4.706 1.948 1.186 1.304 1.78 3.369 1.78 6.2 0 2.603-.566 4.477-1.696 5.624-1.13 1.153-3.01 1.724-5.652 1.724Z" class="text"/><path fill="#303030" d="M0 94.614h238.379v1.914H0z"/><path fill="#303030" d="M160.816 121.692c.19.24.447.364.778.364.319 0 .632-.123.934-.364.308-.246.655-.621 1.035-1.13.012-.023 0-.062-.044-.107-.045-.044-.09-.067-.129-.067-.022 0-.045.006-.056.023-.52.62-.951.934-1.281.934a.46.46 0 0 1-.443-.285c-.09-.19-.134-.487-.134-.879l.118-12.02c0-.023-.023-.056-.068-.095a.217.217 0 0 0-.145-.056h-.04l-2.333 1.147c-.05.028-.061.073-.039.134.028.067.062.095.1.095l.034-.017c.426-.207.756-.307.996-.307.398 0 .594.274.594.822l-.135 10.756c-.01.459.073.806.258 1.052Zm5.16 0c.178.24.43.364.766.364.32 0 .632-.123.935-.364.307-.246.649-.621 1.035-1.13.022-.023.017-.062-.028-.107a.206.206 0 0 0-.146-.067l-.039.023c-.531.62-.968.934-1.298.934-.19 0-.336-.095-.42-.285-.09-.19-.134-.487-.134-.879l.034-4.42c0-.499-.073-.863-.23-1.092-.151-.23-.392-.347-.727-.347-.342 0-.678.129-1.013.386-.33.252-.683.633-1.052 1.13-.023.034-.023.079.01.124.034.044.074.067.124.067.028 0 .05-.017.078-.04.571-.637 1.019-.956 1.338-.956.397 0 .587.386.576 1.164l-.061 4.443c-.012.459.072.806.251 1.052Zm-.51-9.894c.134.129.325.19.565.19.23 0 .409-.061.538-.19.128-.129.19-.313.19-.554 0-.218-.062-.392-.19-.515-.13-.128-.308-.196-.538-.196-.24 0-.43.068-.565.196-.134.123-.201.297-.201.515 0 .24.067.425.201.554Zm8.92-3.509c-.302-.201-.682-.296-1.141-.296-.828 0-1.455.168-1.886.515-.425.347-.722.929-.895 1.762-.174.829-.252 2.032-.241 3.616 0 .33-.095.554-.286.677-.19.123-.548.184-1.074.184-.04 0-.056.034-.056.112 0 .079.028.118.078.118.431 0 .74.022.918.067.18.045.297.134.364.263.061.134.106.375.134.722l.207 6.754c.04.829.062 1.5.062 2.01 0 .8-.045 1.337-.129 1.605-.078.27-.23.403-.448.403a.472.472 0 0 1-.335-.117 1.523 1.523 0 0 1-.258-.325 1.488 1.488 0 0 0-.308-.38c-.1-.09-.246-.135-.436-.135-.207 0-.358.05-.453.152-.095.1-.14.229-.14.386 0 .201.112.38.341.531.23.157.57.23 1.013.23.515 0 .912-.123 1.198-.37.285-.251.498-.654.632-1.22.134-.56.201-1.331.201-2.31 0-.41-.005-.728-.022-.958l-.23-7.14c.359.016.711.044 1.064.09.352.044.576.072.683.083.14.028.268-.033.391-.179a.857.857 0 0 0 .202-.414c0-.1-.062-.151-.174-.151-.828.061-1.555.1-2.182.112l-.04-1.203c-.01-.241-.016-.594-.016-1.052 0-2.782.504-4.17 1.51-4.17.202 0 .37.05.499.163.129.106.274.268.436.487.13.179.247.313.347.408.101.095.224.146.364.146.37 0 .554-.168.554-.498 0-.258-.151-.482-.448-.678Zm5.804 12.58h-.034c-.537.42-1.203.633-1.992.633-.918 0-1.634-.341-2.144-1.019-.509-.671-.766-1.578-.766-2.714v-.022c1.265-.174 2.328-.498 3.19-.963.856-.464 1.287-.979 1.287-1.539 0-.307-.135-.548-.398-.727-.268-.18-.654-.269-1.152-.269-.728 0-1.388.202-1.987.6a4.265 4.265 0 0 0-1.416 1.588 4.432 4.432 0 0 0-.52 2.099c0 .621.128 1.209.375 1.746.251.543.626.985 1.13 1.32.504.342 1.114.51 1.824.51.985 0 1.903-.358 2.76-1.069.022-.04.016-.078-.029-.118a.199.199 0 0 0-.128-.055Zm-4.36-5.36c.342-.499.868-.745 1.567-.745.358 0 .644.062.85.19a.629.629 0 0 1 .32.577c0 .98-1.103 1.64-3.313 1.97.039-.829.23-1.495.576-1.993Zm10.504 6.24c.42.229.901.346 1.433.346.487 0 .912-.106 1.287-.308.37-.207.655-.47.856-.806.207-.33.308-.682.308-1.052 0-.47-.157-.873-.47-1.203-.314-.33-.778-.722-1.405-1.17-.56-.38-.985-.721-1.265-1.012a1.423 1.423 0 0 1-.42-1.013c0-.549.325-.823.974-.823.286 0 .515.05.7.151.185.101.375.24.565.42.14.129.263.224.375.291a.693.693 0 0 0 .353.095c.14 0 .257-.039.347-.117a.375.375 0 0 0 .134-.303c0-.257-.185-.475-.549-.66a2.677 2.677 0 0 0-1.23-.28c-.605 0-1.142.157-1.63.476-.486.319-.727.767-.727 1.343 0 .459.146.84.442 1.147.291.308.728.65 1.299 1.036.587.38 1.03.733 1.332 1.052.296.319.447.71.447 1.186 0 .37-.106.66-.324.867-.218.213-.532.32-.94.32-.353 0-.627-.068-.823-.202a3.436 3.436 0 0 1-.61-.588 3.313 3.313 0 0 0-.313-.352.469.469 0 0 0-.297-.107c-.129 0-.24.04-.336.107a.379.379 0 0 0-.145.319c0 .33.212.61.632.84Zm11.086-7.186c-.028-.034-.073-.045-.123-.045l-.767.056c-1.388.09-2.356.14-2.904.151v-1.393c0-.04-.062-.062-.174-.062-.117 0-.167.022-.15.062-.029.42-.18.76-.454 1.024-.274.257-.632.391-1.08.391-.028 0-.04.034-.04.112 0 .079.023.118.057.118.308 0 .52.022.632.067.118.045.19.134.224.263.028.134.05.375.067.722l-.022 4.55c-.011.537.14.928.453 1.17.308.24.688.363 1.136.363.409 0 .811-.1 1.214-.297.403-.196.857-.52 1.371-.968.023-.022.017-.056-.022-.095a.182.182 0 0 0-.134-.056h-.017a5.14 5.14 0 0 1-.879.582 2.117 2.117 0 0 1-.957.202c-.436 0-.755-.124-.957-.37-.207-.252-.302-.643-.29-1.18l.022-4.802a32.99 32.99 0 0 1 2.753.173l.481.04c.14.022.275-.045.398-.213.128-.168.196-.32.196-.459.01-.04 0-.073-.034-.106Zm8.529 5.825c-.028 0-.045.006-.062.023-.52.62-.946.934-1.282.934-.201 0-.346-.095-.436-.285-.09-.19-.134-.487-.134-.879l.056-6.066c0-.028-.04-.04-.123-.04-.084 0-.124.012-.124.04-.016.24-.123.464-.33.666-.37-.353-.856-.532-1.472-.532-.71 0-1.404.291-2.076.868-.666.582-1.214 1.32-1.634 2.221-.42.901-.632 1.797-.632 2.687 0 .744.145 1.275.442 1.611.29.33.671.493 1.147.493.778 0 1.511-.375 2.21-1.136.695-.761 1.265-1.752 1.713-2.977l-.04 2.624c-.01.47.062.823.23 1.063.168.235.414.353.745.353.319 0 .632-.123.94-.364.308-.246.649-.621 1.03-1.13.027-.023.016-.062-.029-.107-.044-.044-.09-.067-.14-.067Zm-4.567.129c-.515.526-1.046.789-1.595.789-.408 0-.71-.157-.912-.476-.196-.319-.297-.817-.297-1.494 0-.85.14-1.623.426-2.305.28-.683.654-1.215 1.125-1.595.475-.386.979-.577 1.51-.577.426 0 .773.14 1.053.414.285.275.425.627.425 1.058 0 .694-.162 1.427-.481 2.21-.32.79-.733 1.444-1.254 1.976Zm10.437-5.926a1.336 1.336 0 0 0-.823-.286c-.52 0-.99.493-1.404 1.472-.415.985-.722 2.155-.93 3.52v-2.177c.017-1.114-.067-1.852-.246-2.233-.179-.375-.436-.565-.766-.565-.32 0-.666.112-1.041.336-.38.224-.722.526-1.024.912-.017.022-.006.056.028.095.033.04.061.056.084.056.028 0 .039-.006.039-.017.42-.447.845-.671 1.265-.671.531 0 .794.694.783 2.087l-.04 3.347c0 .447-.005.789-.016 1.024-.017.235-.022.38-.022.43.017.04.05.068.106.085.056.022.168.028.336.028a.75.75 0 0 0 .364-.073c.09-.05.134-.118.134-.196.022-.79.134-1.707.336-2.753.195-1.047.442-1.942.733-2.687.296-.75.593-1.119.9-1.119.14 0 .28.084.42.246l.107.096c.056.05.128.1.212.145a.635.635 0 0 0 .314.067c.14 0 .263-.045.375-.134a.474.474 0 0 0 .162-.38c0-.247-.129-.465-.386-.655Zm6.603 5.988h-.016a5.2 5.2 0 0 1-.952.671c-.285.157-.621.23-1.002.23-.458 0-.783-.124-.968-.37-.184-.252-.274-.643-.274-1.18l.017-4.802c.587.011 1.337.078 2.255.19.157.028.291-.033.414-.179.123-.145.19-.285.202-.414 0-.1-.056-.151-.174-.151a84.72 84.72 0 0 1-2.697.134v-1.376c0-.04-.056-.062-.174-.062-.111 0-.162.022-.15.062-.029.42-.174.76-.448 1.024-.275.257-.638.391-1.086.391-.05 0-.073.034-.073.112 0 .079.023.118.073.118.308 0 .52.022.644.067a.354.354 0 0 1 .229.263c.034.134.056.375.067.722l-.022 4.55c0 .537.15.928.442 1.17.296.24.677.363 1.147.363.42 0 .845-.106 1.265-.325.42-.218.895-.57 1.416-1.052.039-.028.033-.056-.012-.095-.044-.04-.084-.061-.123-.061Zm1.534 1.17c.42.229.895.346 1.432.346a2.63 2.63 0 0 0 1.282-.308c.37-.207.654-.47.862-.806.201-.33.307-.682.307-1.052 0-.47-.156-.873-.47-1.203-.313-.33-.783-.722-1.404-1.17-.566-.38-.985-.721-1.265-1.012a1.423 1.423 0 0 1-.42-1.013c0-.549.325-.823.974-.823.28 0 .515.05.7.151.184.101.374.24.565.42.14.129.263.224.369.291a.73.73 0 0 0 .358.095c.14 0 .252-.039.342-.117a.375.375 0 0 0 .134-.303c0-.257-.18-.475-.543-.66a2.7 2.7 0 0 0-1.237-.28c-.599 0-1.141.157-1.623.476-.486.319-.727.767-.727 1.343 0 .459.145.84.436 1.147.297.308.728.65 1.304 1.036.588.38 1.03.733 1.327 1.052.302.319.453.71.453 1.186 0 .37-.112.66-.325.867-.218.213-.531.32-.94.32-.358 0-.632-.068-.823-.202a3.257 3.257 0 0 1-.61-.588 2.744 2.744 0 0 0-.318-.352.458.458 0 0 0-.297-.107c-.129 0-.24.04-.336.107-.095.072-.14.179-.14.319 0 .33.207.61.633.84Zm18.444-1.36c-.028 0-.044.005-.061.022-.52.62-.946.934-1.282.934-.201 0-.347-.095-.436-.285-.09-.19-.134-.487-.134-.879l.016-3.408c.012-.878-.112-1.522-.38-1.925-.269-.397-.677-.599-1.226-.599-.817 0-1.505.403-2.065 1.215-.565.811-.957 1.93-1.186 3.357l.095-10.66c0-.023-.028-.056-.078-.095a.224.224 0 0 0-.135-.056h-.039l-2.373 1.147c-.033.028-.044.067-.027.123.022.062.055.09.106.09h.039c.42-.208.761-.308 1.013-.308.42 0 .632.274.632.822l-.134 10.583c0 .33-.011.649-.028.945a9.3 9.3 0 0 0-.028.51c.022.039.067.067.123.084.056.022.168.028.336.028a.69.69 0 0 0 .352-.073c.084-.05.124-.118.124-.196.028-1.45.167-2.697.425-3.727.252-1.035.587-1.819 1.002-2.345.414-.532.873-.795 1.37-.795.829 0 1.237.745 1.22 2.239l-.039 3.503c0 .94.336 1.416.996 1.416.32 0 .627-.118.918-.353.297-.24.65-.615 1.052-1.141.017-.023 0-.062-.044-.107-.045-.044-.084-.067-.124-.067Zm6.565.48h-.04c-.537.42-1.203.633-1.992.633-.917 0-1.634-.341-2.143-1.019-.51-.671-.767-1.578-.767-2.714v-.022c1.265-.174 2.328-.498 3.19-.963.862-.464 1.287-.979 1.287-1.539a.826.826 0 0 0-.397-.727c-.269-.18-.655-.269-1.153-.269-.722 0-1.388.202-1.987.6a4.265 4.265 0 0 0-1.415 1.588 4.427 4.427 0 0 0-.515 2.099c0 .621.123 1.209.37 1.746.251.543.626.985 1.13 1.32.503.342 1.113.51 1.824.51.985 0 1.903-.358 2.759-1.069.022-.04.017-.078-.028-.118a.198.198 0 0 0-.123-.055Zm-4.365-5.36c.341-.499.867-.745 1.567-.745.358 0 .643.062.85.19a.629.629 0 0 1 .32.577c0 .98-1.103 1.64-3.314 1.97.04-.829.23-1.495.577-1.993Zm10.694-.918a1.336 1.336 0 0 0-.823-.286c-.52 0-.99.493-1.404 1.472-.414.985-.722 2.155-.93 3.52v-2.177c.012-1.114-.066-1.852-.246-2.233-.179-.375-.436-.565-.766-.565-.32 0-.666.112-1.041.336-.38.224-.722.526-1.024.912-.017.022-.006.056.028.095.028.04.061.056.084.056.028 0 .039-.006.039-.017.42-.447.84-.671 1.265-.671.531 0 .794.694.783 2.087l-.04 3.347c0 .447-.005.789-.016 1.024-.017.235-.022.38-.022.43.011.04.05.068.106.085.056.022.168.028.336.028a.75.75 0 0 0 .364-.073c.09-.05.134-.118.134-.196.022-.79.134-1.707.336-2.753.196-1.047.442-1.942.733-2.687.296-.75.593-1.119.9-1.119.14 0 .28.084.42.246l.107.096c.056.05.128.1.207.145.084.045.19.067.319.067.14 0 .263-.045.375-.134a.474.474 0 0 0 .162-.38c0-.247-.129-.465-.386-.655Zm7.079 6.279h-.034c-.537.42-1.203.632-1.992.632-.918 0-1.634-.341-2.143-1.019-.51-.671-.767-1.578-.767-2.714v-.022c1.265-.174 2.328-.498 3.19-.963.856-.464 1.287-.979 1.287-1.539 0-.307-.134-.548-.397-.727-.269-.18-.655-.269-1.153-.269-.727 0-1.388.202-1.987.6a4.265 4.265 0 0 0-1.415 1.588 4.432 4.432 0 0 0-.52 2.099c0 .621.128 1.209.374 1.746.252.543.627.985 1.13 1.32.504.342 1.114.51 1.825.51.985 0 1.903-.358 2.759-1.069.022-.04.016-.078-.028-.118a.199.199 0 0 0-.129-.055Zm-4.36-5.362c.342-.498.868-.744 1.568-.744.358 0 .643.062.85.19a.629.629 0 0 1 .32.577c0 .98-1.103 1.64-3.314 1.97.04-.829.23-1.495.577-1.993Z" class="text"/></svg>